<svg width="24" height="24" viewBox="0 0 24 24" fill="none" xmlns="http://www.w3.org/2000/svg">
<rect width="24" height="24" rx="6" fill="#D9D9D9"/>
<rect width="24" height="24" rx="6" fill="url(#paint0_radial_162_10369)"/>
<path d="M2.15812 10.1534L1.69704 9.03037L1.24067 10.1534M12.307 9.70693C12.2138 9.76103 12.1061 9.76574 11.9734 9.76574H11.159V9.13811H11.988C12.1056 9.13811 12.2284 9.14281 12.307 9.18704C12.3954 9.22609 12.4491 9.31454 12.4491 9.43734C12.4491 9.55966 12.395 9.6627 12.307 9.70693ZM18.1438 10.1534L17.6781 9.03037L17.217 10.1534H18.1438ZM7.26948 11.3696H6.57787L6.57316 9.1621L5.59691 11.3696H5.00833L4.02736 9.1621V11.3696H2.65872L2.39854 10.742H1.00072L0.740546 11.3696H0.00988021L1.2115 8.55423H2.21223L3.36021 11.2177V8.55423H4.4588L5.3419 10.4625L6.15114 8.55423H7.26948V11.3696ZM10.0162 11.3696H7.76961V8.55423H10.0162V9.14281H8.44147V9.64811H9.98184V10.2221H8.44664V10.7862H10.0214V11.3701H10.0162V11.3696ZM13.1896 9.30936C13.1896 9.76056 12.8904 9.9911 12.714 10.0598C12.8612 10.1139 12.9887 10.2169 13.0475 10.295C13.1407 10.4371 13.1604 10.5599 13.1604 10.8102V11.3644H12.4834L12.4787 11.0111C12.4787 10.8394 12.4933 10.599 12.371 10.4616C12.2726 10.3633 12.1207 10.3388 11.8803 10.3388H11.159V11.364H10.4871V8.55329H12.0369C12.3804 8.55329 12.6354 8.56317 12.8513 8.6855C13.0621 8.81394 13.1896 8.99555 13.1896 9.30936ZM14.2642 11.3696H13.5773V8.55423H14.2642V11.3696ZM22.2347 11.3696H21.2829L20.0074 9.25573V11.3696H18.6388L18.3786 10.742H16.9808L16.7258 11.3696H15.9358C15.607 11.3696 15.1953 11.2962 14.9596 11.0605C14.7243 10.8201 14.6015 10.4964 14.6015 9.98639C14.6015 9.56954 14.6749 9.18704 14.9643 8.88781C15.1802 8.66197 15.5237 8.55894 15.9848 8.55894H16.6373V9.1621H15.9998C15.7547 9.1621 15.6173 9.19645 15.4799 9.32865C15.367 9.44628 15.2885 9.67211 15.2885 9.96616C15.2885 10.2701 15.3473 10.486 15.4748 10.6281C15.5778 10.7411 15.7693 10.7754 15.9457 10.7754H16.2497L17.1963 8.56317H18.2069L19.345 11.2266V8.55329H20.3702L21.5525 10.5152V8.55329H22.2441L22.2347 11.3696ZM0 11.9192H1.14799L1.40817 11.2915H1.98686L2.24704 11.9192H4.5082V11.4435L4.7091 11.9243H5.88155L6.08245 11.4388V11.9243H11.7033L11.6986 10.8991H11.8064C11.885 10.9038 11.9047 10.909 11.9047 11.0365V11.929H14.8133V11.6886C15.0485 11.8161 15.4117 11.929 15.8926 11.929H17.1139L17.3741 11.3014H17.9528L18.2078 11.929H20.5673V11.3357L20.9254 11.929H22.8336V8H20.9649V8.46578L20.7047 8H18.787V8.46578L18.5466 8H15.9565C15.5251 8 15.1421 8.05881 14.8335 8.23054V8H13.0433V8.23054C12.8471 8.05881 12.5822 8 12.283 8H5.7437L5.30709 9.01531L4.85589 8H2.7961V8.46578L2.57027 8H0.814412L0 9.85889V11.9192Z" fill="white"/>
<path d="M23.994 13.9987H22.7679C22.6451 13.9987 22.5619 14.0034 22.4932 14.0476C22.4245 14.0918 22.3949 14.1605 22.3949 14.2485C22.3949 14.3563 22.4537 14.4249 22.5421 14.4593C22.6108 14.4838 22.6894 14.4936 22.8023 14.4936L23.165 14.5035C23.533 14.5134 23.7781 14.5769 23.93 14.7294C23.9597 14.7491 23.9743 14.7736 23.994 14.798M23.994 15.858C23.8322 16.0985 23.5132 16.2161 23.0818 16.2161H21.7818V15.6129H23.0766C23.2041 15.6129 23.2972 15.5983 23.3513 15.5442C23.4003 15.5 23.4299 15.4365 23.4299 15.3626C23.4299 15.2794 23.3956 15.2154 23.3466 15.1763C23.2977 15.1321 23.229 15.1123 23.1114 15.1123C22.4786 15.0926 21.6891 15.1321 21.6891 14.2391C21.6891 13.8321 21.9493 13.4002 22.6555 13.4002H23.9945V12.8408H22.7487C22.3709 12.8408 22.1013 12.9293 21.9051 13.0714V12.8408H20.0608C19.7662 12.8408 19.4181 12.9142 19.2562 13.0714V12.8408H15.9647V13.0714C15.7045 12.8799 15.2632 12.8408 15.0571 12.8408H12.8891V13.0714C12.6831 12.8705 12.222 12.8408 11.9425 12.8408H9.51435L8.96011 13.444L8.44023 12.8408H4.81042V16.7699H8.37154L8.94553 16.1568L9.48518 16.7699H11.6776V15.8477H11.8936C12.1829 15.8524 12.5264 15.843 12.8303 15.7103V16.7699H14.6403V15.7447H14.7287C14.8417 15.7447 14.8515 15.7494 14.8515 15.8623V16.7699H20.3501C20.6983 16.7699 21.0662 16.6814 21.2676 16.5196V16.7699H23.014C23.3768 16.7699 23.7301 16.7209 24.0002 16.5882V15.8576H23.994V15.858ZM21.3109 14.7298C21.4431 14.8672 21.5117 15.0389 21.5117 15.3283C21.5117 15.9366 21.1339 16.2161 20.4522 16.2161H19.1424V15.6129H20.447C20.5745 15.6129 20.663 15.5983 20.7218 15.5442C20.766 15.5 20.8004 15.4365 20.8004 15.3626C20.8004 15.2794 20.766 15.2154 20.7171 15.1763C20.6682 15.1321 20.5943 15.1123 20.4767 15.1123C19.849 15.0926 19.0591 15.1321 19.0591 14.2391C19.0591 13.8321 19.3141 13.4002 20.0203 13.4002H21.3692V13.9987H20.1332C20.0104 13.9987 19.9323 14.0034 19.8636 14.0476C19.7902 14.0918 19.7606 14.1605 19.7606 14.2485C19.7606 14.3563 19.8246 14.4249 19.9079 14.4593C19.9766 14.4838 20.0551 14.4936 20.168 14.4936L20.5308 14.5035C20.9086 14.5139 21.1589 14.5774 21.3109 14.7298ZM15.2383 14.5581C15.1498 14.6122 15.0374 14.6169 14.9047 14.6169H14.0856V13.9841H14.9146C15.0322 13.9841 15.155 13.9888 15.2336 14.033C15.322 14.0773 15.371 14.1652 15.371 14.288C15.3757 14.4061 15.3216 14.504 15.2383 14.5581ZM15.6453 14.9063C15.7972 14.9604 15.92 15.0582 15.9741 15.1415C16.0673 15.2789 16.0819 15.4064 16.087 15.6567V16.2161H15.41V15.8628C15.41 15.691 15.4246 15.4407 15.3023 15.3132C15.2039 15.2102 15.052 15.1904 14.8068 15.1904H14.0856V16.2203H13.4086V13.4049H14.9635C15.3018 13.4049 15.5521 13.4195 15.7728 13.5371C15.9835 13.6646 16.1209 13.8411 16.1209 14.1648C16.1214 14.607 15.8222 14.8376 15.6453 14.9063ZM16.494 13.4002H18.7406V13.9841H17.1659V14.4941H18.7062V15.0681H17.1659V15.6275L18.7406 15.6322V16.2161H16.494V13.4002ZM11.9519 14.7002H11.0839V13.9841H11.9618C12.2069 13.9841 12.374 14.0824 12.374 14.3276C12.374 14.5727 12.2116 14.7002 11.9519 14.7002ZM10.4116 15.9606L9.37649 14.8126L10.4116 13.7042V15.9606ZM7.74344 15.6275H6.09062V15.0681H7.567V14.4941H6.09062V13.9841H7.77778L8.51362 14.8032L7.74344 15.6275ZM13.0947 14.3276C13.0947 15.1123 12.5109 15.2695 11.9223 15.2695H11.0834V16.2161H9.77358L8.94459 15.2841L8.08125 16.2161H5.41782V13.4007H8.12547L8.95447 14.3229L9.81264 13.4007H11.9609C12.4963 13.4002 13.0947 13.5475 13.0947 14.3276Z" fill="white"/>
<rect width="24" height="24" rx="6" fill="#D9D9D9"/>
<rect width="24" height="24" rx="6" fill="url(#paint1_radial_162_10369)"/>
<path d="M2.15812 10.1534L1.69704 9.03037L1.24067 10.1534M12.307 9.70693C12.2138 9.76103 12.1061 9.76574 11.9734 9.76574H11.159V9.13811H11.988C12.1056 9.13811 12.2284 9.14281 12.307 9.18704C12.3954 9.22609 12.4491 9.31454 12.4491 9.43734C12.4491 9.55966 12.395 9.6627 12.307 9.70693ZM18.1438 10.1534L17.6781 9.03037L17.217 10.1534H18.1438ZM7.26948 11.3696H6.57787L6.57316 9.1621L5.59691 11.3696H5.00833L4.02736 9.1621V11.3696H2.65872L2.39854 10.742H1.00072L0.740546 11.3696H0.00988021L1.2115 8.55423H2.21223L3.36021 11.2177V8.55423H4.4588L5.3419 10.4625L6.15114 8.55423H7.26948V11.3696ZM10.0162 11.3696H7.76961V8.55423H10.0162V9.14281H8.44147V9.64811H9.98184V10.2221H8.44664V10.7862H10.0214V11.3701H10.0162V11.3696ZM13.1896 9.30936C13.1896 9.76056 12.8904 9.9911 12.714 10.0598C12.8612 10.1139 12.9887 10.2169 13.0475 10.295C13.1407 10.4371 13.1604 10.5599 13.1604 10.8102V11.3644H12.4834L12.4787 11.0111C12.4787 10.8394 12.4933 10.599 12.371 10.4616C12.2726 10.3633 12.1207 10.3388 11.8803 10.3388H11.159V11.364H10.4871V8.55329H12.0369C12.3804 8.55329 12.6354 8.56317 12.8513 8.6855C13.0621 8.81394 13.1896 8.99555 13.1896 9.30936ZM14.2642 11.3696H13.5773V8.55423H14.2642V11.3696ZM22.2347 11.3696H21.2829L20.0074 9.25573V11.3696H18.6388L18.3786 10.742H16.9808L16.7258 11.3696H15.9358C15.607 11.3696 15.1953 11.2962 14.9596 11.0605C14.7243 10.8201 14.6015 10.4964 14.6015 9.98639C14.6015 9.56954 14.6749 9.18704 14.9643 8.88781C15.1802 8.66197 15.5237 8.55894 15.9848 8.55894H16.6373V9.1621H15.9998C15.7547 9.1621 15.6173 9.19645 15.4799 9.32865C15.367 9.44628 15.2885 9.67211 15.2885 9.96616C15.2885 10.2701 15.3473 10.486 15.4748 10.6281C15.5778 10.7411 15.7693 10.7754 15.9457 10.7754H16.2497L17.1963 8.56317H18.2069L19.345 11.2266V8.55329H20.3702L21.5525 10.5152V8.55329H22.2441L22.2347 11.3696ZM0 11.9192H1.14799L1.40817 11.2915H1.98686L2.24704 11.9192H4.5082V11.4435L4.7091 11.9243H5.88155L6.08245 11.4388V11.9243H11.7033L11.6986 10.8991H11.8064C11.885 10.9038 11.9047 10.909 11.9047 11.0365V11.929H14.8133V11.6886C15.0485 11.8161 15.4117 11.929 15.8926 11.929H17.1139L17.3741 11.3014H17.9528L18.2078 11.929H20.5673V11.3357L20.9254 11.929H22.8336V8H20.9649V8.46578L20.7047 8H18.787V8.46578L18.5466 8H15.9565C15.5251 8 15.1421 8.05881 14.8335 8.23054V8H13.0433V8.23054C12.8471 8.05881 12.5822 8 12.283 8H5.7437L5.30709 9.01531L4.85589 8H2.7961V8.46578L2.57027 8H0.814412L0 9.85889V11.9192Z" fill="white"/>
<path d="M23.994 13.9987H22.7679C22.6451 13.9987 22.5619 14.0034 22.4932 14.0476C22.4245 14.0918 22.3949 14.1605 22.3949 14.2485C22.3949 14.3563 22.4537 14.4249 22.5421 14.4593C22.6108 14.4838 22.6894 14.4936 22.8023 14.4936L23.165 14.5035C23.533 14.5134 23.7781 14.5769 23.93 14.7294C23.9597 14.7491 23.9743 14.7736 23.994 14.798M23.994 15.858C23.8322 16.0985 23.5132 16.2161 23.0818 16.2161H21.7818V15.6129H23.0766C23.2041 15.6129 23.2972 15.5983 23.3513 15.5442C23.4003 15.5 23.4299 15.4365 23.4299 15.3626C23.4299 15.2794 23.3956 15.2154 23.3466 15.1763C23.2977 15.1321 23.229 15.1123 23.1114 15.1123C22.4786 15.0926 21.6891 15.1321 21.6891 14.2391C21.6891 13.8321 21.9493 13.4002 22.6555 13.4002H23.9945V12.8408H22.7487C22.3709 12.8408 22.1013 12.9293 21.9051 13.0714V12.8408H20.0608C19.7662 12.8408 19.4181 12.9142 19.2562 13.0714V12.8408H15.9647V13.0714C15.7045 12.8799 15.2632 12.8408 15.0571 12.8408H12.8891V13.0714C12.6831 12.8705 12.222 12.8408 11.9425 12.8408H9.51435L8.96011 13.444L8.44023 12.8408H4.81042V16.7699H8.37154L8.94553 16.1568L9.48518 16.7699H11.6776V15.8477H11.8936C12.1829 15.8524 12.5264 15.843 12.8303 15.7103V16.7699H14.6403V15.7447H14.7287C14.8417 15.7447 14.8515 15.7494 14.8515 15.8623V16.7699H20.3501C20.6983 16.7699 21.0662 16.6814 21.2676 16.5196V16.7699H23.014C23.3768 16.7699 23.7301 16.7209 24.0002 16.5882V15.8576H23.994V15.858ZM21.3109 14.7298C21.4431 14.8672 21.5117 15.0389 21.5117 15.3283C21.5117 15.9366 21.1339 16.2161 20.4522 16.2161H19.1424V15.6129H20.447C20.5745 15.6129 20.663 15.5983 20.7218 15.5442C20.766 15.5 20.8004 15.4365 20.8004 15.3626C20.8004 15.2794 20.766 15.2154 20.7171 15.1763C20.6682 15.1321 20.5943 15.1123 20.4767 15.1123C19.849 15.0926 19.0591 15.1321 19.0591 14.2391C19.0591 13.8321 19.3141 13.4002 20.0203 13.4002H21.3692V13.9987H20.1332C20.0104 13.9987 19.9323 14.0034 19.8636 14.0476C19.7902 14.0918 19.7606 14.1605 19.7606 14.2485C19.7606 14.3563 19.8246 14.4249 19.9079 14.4593C19.9766 14.4838 20.0551 14.4936 20.168 14.4936L20.5308 14.5035C20.9086 14.5139 21.1589 14.5774 21.3109 14.7298ZM15.2383 14.5581C15.1498 14.6122 15.0374 14.6169 14.9047 14.6169H14.0856V13.9841H14.9146C15.0322 13.9841 15.155 13.9888 15.2336 14.033C15.322 14.0773 15.371 14.1652 15.371 14.288C15.3757 14.4061 15.3216 14.504 15.2383 14.5581ZM15.6453 14.9063C15.7972 14.9604 15.92 15.0582 15.9741 15.1415C16.0673 15.2789 16.0819 15.4064 16.087 15.6567V16.2161H15.41V15.8628C15.41 15.691 15.4246 15.4407 15.3023 15.3132C15.2039 15.2102 15.052 15.1904 14.8068 15.1904H14.0856V16.2203H13.4086V13.4049H14.9635C15.3018 13.4049 15.5521 13.4195 15.7728 13.5371C15.9835 13.6646 16.1209 13.8411 16.1209 14.1648C16.1214 14.607 15.8222 14.8376 15.6453 14.9063ZM16.494 13.4002H18.7406V13.9841H17.1659V14.4941H18.7062V15.0681H17.1659V15.6275L18.7406 15.6322V16.2161H16.494V13.4002ZM11.9519 14.7002H11.0839V13.9841H11.9618C12.2069 13.9841 12.374 14.0824 12.374 14.3276C12.374 14.5727 12.2116 14.7002 11.9519 14.7002ZM10.4116 15.9606L9.37649 14.8126L10.4116 13.7042V15.9606ZM7.74344 15.6275H6.09062V15.0681H7.567V14.4941H6.09062V13.9841H7.77778L8.51362 14.8032L7.74344 15.6275ZM13.0947 14.3276C13.0947 15.1123 12.5109 15.2695 11.9223 15.2695H11.0834V16.2161H9.77358L8.94459 15.2841L8.08125 16.2161H5.41782V13.4007H8.12547L8.95447 14.3229L9.81264 13.4007H11.9609C12.4963 13.4002 13.0947 13.5475 13.0947 14.3276Z" fill="white"/>
<defs>
<radialGradient id="paint0_radial_162_10369" cx="0" cy="0" r="1" gradientUnits="userSpaceOnUse" gradientTransform="translate(35.0787 4.71929) scale(22.3903 22.4407)">
<stop stop-color="#9DD5F6"/>
<stop offset="0.0711" stop-color="#98D3F5"/>
<stop offset="0.1575" stop-color="#89CEF3"/>
<stop offset="0.2516" stop-color="#70C6EF"/>
<stop offset="0.3514" stop-color="#4EBBEA"/>
<stop offset="0.4546" stop-color="#23ADE3"/>
<stop offset="0.5" stop-color="#0DA6E0"/>
<stop offset="1" stop-color="#2E77BC"/>
</radialGradient>
<radialGradient id="paint1_radial_162_10369" cx="0" cy="0" r="1" gradientUnits="userSpaceOnUse" gradientTransform="translate(35.0787 4.71929) scale(22.3903 22.4407)">
<stop stop-color="#9DD5F6"/>
<stop offset="0.0711" stop-color="#98D3F5"/>
<stop offset="0.1575" stop-color="#89CEF3"/>
<stop offset="0.2516" stop-color="#70C6EF"/>
<stop offset="0.3514" stop-color="#4EBBEA"/>
<stop offset="0.4546" stop-color="#23ADE3"/>
<stop offset="0.5" stop-color="#0DA6E0"/>
<stop offset="1" stop-color="#2E77BC"/>
</radialGradient>
</defs>
</svg>
