<svg width="40" height="40" viewBox="0 0 40 40" fill="none" xmlns="http://www.w3.org/2000/svg">
<rect width="40" height="40" rx="16" fill="#E9FAEF"/>
<path d="M16 20.2H23" stroke="#22C55E" stroke-width="1.5" stroke-miterlimit="10" stroke-linecap="round" stroke-linejoin="round"/>
<path d="M16 24.2H20.38" stroke="#22C55E" stroke-width="1.5" stroke-miterlimit="10" stroke-linecap="round" stroke-linejoin="round"/>
<path d="M18 14H22C24 14 24 13 24 12C24 10 23 10 22 10H18C17 10 16 10 16 12C16 14 17 14 18 14Z" stroke="#22C55E" stroke-width="1.5" stroke-miterlimit="10" stroke-linecap="round" stroke-linejoin="round"/>
<path d="M24 12.02C27.33 12.2 29 13.43 29 18V24C29 28 28 30 23 30H17C12 30 11 28 11 24V18C11 13.44 12.67 12.2 16 12.02" stroke="#22C55E" stroke-width="1.5" stroke-miterlimit="10" stroke-linecap="round" stroke-linejoin="round"/>
</svg>
