<svg width="78" height="78" viewBox="0 0 78 78" fill="none" xmlns="http://www.w3.org/2000/svg">
<path d="M34.4499 44.85L27.3812 37.7812C26.7854 37.1854 26.0541 36.8875 25.1874 36.8875C24.3208 36.8875 23.5624 37.2125 22.9124 37.8625C22.3166 38.4583 22.0187 39.2167 22.0187 40.1375C22.0187 41.0583 22.3166 41.8167 22.9124 42.4125L32.1749 51.675C32.7708 52.2708 33.5291 52.5687 34.4499 52.5687C35.3708 52.5687 36.1291 52.2708 36.7249 51.675L55.1687 33.2313C55.7645 32.6354 56.0624 31.9042 56.0624 31.0375C56.0624 30.1708 55.7374 29.4125 55.0874 28.7625C54.4916 28.1667 53.7333 27.8687 52.8124 27.8687C51.8916 27.8687 51.1333 28.1667 50.5374 28.7625L34.4499 44.85ZM38.9999 71.5C34.5041 71.5 30.2791 70.6463 26.3249 68.939C22.3708 67.2338 18.9312 64.9188 16.0062 61.9938C13.0812 59.0688 10.7661 55.6292 9.06094 51.675C7.35361 47.7208 6.49994 43.4958 6.49994 39C6.49994 34.5042 7.35361 30.2792 9.06094 26.325C10.7661 22.3708 13.0812 18.9313 16.0062 16.0063C18.9312 13.0813 22.3708 10.7651 26.3249 9.05775C30.2791 7.35258 34.5041 6.5 38.9999 6.5C43.4958 6.5 47.7208 7.35258 51.6749 9.05775C55.6291 10.7651 59.0687 13.0813 61.9937 16.0063C64.9187 18.9313 67.2338 22.3708 68.9389 26.325C70.6463 30.2792 71.4999 34.5042 71.4999 39C71.4999 43.4958 70.6463 47.7208 68.9389 51.675C67.2338 55.6292 64.9187 59.0688 61.9937 61.9938C59.0687 64.9188 55.6291 67.2338 51.6749 68.939C47.7208 70.6463 43.4958 71.5 38.9999 71.5Z" fill="#22C55E"/>
</svg>
