<svg width="73" height="74" viewBox="0 0 73 74" fill="none" xmlns="http://www.w3.org/2000/svg">
<path d="M67.2847 23.2109H50.0852V5.75259C50.0852 3.12248 47.9555 0.979431 45.3178 0.979431H26.4967C23.8697 0.979431 21.7292 3.11166 21.7292 5.75259V15.1366H29.0696V8.32858H42.7341V43.7431H36.7018V51.0922H50.0744V30.56H64.701V43.7431H57.3823V51.0922H67.2739C69.9008 51.0922 72.0413 48.96 72.0413 46.3191V27.9841C72.0413 25.3539 69.9117 23.2109 67.2847 23.2109Z" fill="#247CFF"/>
<path d="M42.7447 65.6715H29.0803V30.56H35.2206V23.2109H21.7399V43.7322H7.34033V30.56H14.5401V23.2109H4.76743C2.12967 23.2109 0 25.3539 0 27.984V46.319C0 48.9492 2.12967 51.0922 4.76743 51.0922H21.7399V68.2583C21.7399 70.8884 23.8696 73.0314 26.5074 73.0314H45.3284C47.9554 73.0314 50.0959 70.8992 50.0959 68.2583V58.3872H42.7555V65.6715H42.7447Z" fill="#247CFF"/>
</svg>
