<svg width="40" height="32" viewBox="0 0 40 32" fill="none" xmlns="http://www.w3.org/2000/svg">
<path d="M7.28203 31.4465V29.3871C7.28203 28.598 6.8 28.0832 5.97812 28.0832C5.56172 28.0832 5.12344 28.2254 4.80547 28.6637C4.56406 28.291 4.225 28.0832 3.71015 28.0832C3.37031 28.0832 3.02031 28.1816 2.74609 28.5652V28.1488H2.03359V31.4465H2.75703V29.6277C2.75703 29.0473 3.06406 28.773 3.54609 28.773C4.02812 28.773 4.26953 29.0801 4.26953 29.6277V31.4465H4.99297V29.6277C4.99297 29.0473 5.33281 28.773 5.78203 28.773C6.26406 28.773 6.50547 29.0801 6.50547 29.6277V31.4465H7.28203ZM17.9641 28.1488H16.7914V27.152H16.068V28.1488H15.4109V28.8059H16.068V30.3176C16.068 31.0738 16.375 31.523 17.1961 31.523C17.5031 31.523 17.8531 31.4246 18.0836 31.2816L17.8758 30.6684C17.668 30.8105 17.4266 30.8434 17.2625 30.8434C16.9227 30.8434 16.7805 30.6355 16.7805 30.2957V28.8168H17.9531V28.1488H17.9641ZM24.0664 28.0832C23.65 28.0832 23.3766 28.291 23.2117 28.5652V28.1488H22.4883V31.4465H23.2117V29.5949C23.2117 29.0473 23.4531 28.7402 23.9016 28.7402C24.0437 28.7402 24.2086 28.773 24.3508 28.8059L24.5586 28.116C24.4172 28.0832 24.2086 28.0832 24.0664 28.0832ZM14.8305 28.423C14.4906 28.1816 14.0086 28.0832 13.4937 28.0832C12.6719 28.0832 12.1242 28.4996 12.1242 29.1457C12.1242 29.6934 12.5406 30.0004 13.2523 30.1098L13.5922 30.1426C13.9648 30.2082 14.1727 30.3176 14.1727 30.4824C14.1727 30.7238 13.8984 30.8988 13.4164 30.8988C12.9344 30.8988 12.5617 30.7238 12.3211 30.559L11.9812 31.1066C12.3539 31.3809 12.8687 31.523 13.3836 31.523C14.3477 31.523 14.8953 31.0738 14.8953 30.4605C14.8953 29.8801 14.4461 29.573 13.7672 29.4637L13.4273 29.4309C13.1203 29.398 12.8797 29.3324 12.8797 29.1238C12.8797 28.8824 13.1211 28.7512 13.493 28.7512C13.9094 28.7512 14.3148 28.9262 14.5227 29.0254L14.8305 28.423ZM33.9922 28.0832C33.5758 28.0832 33.3023 28.291 33.1375 28.5652V28.1488H32.4141V31.4465H33.1375V29.5949C33.1375 29.0473 33.3789 28.7402 33.8273 28.7402C33.9695 28.7402 34.1344 28.773 34.2766 28.8059L34.4844 28.116C34.332 28.0832 34.1234 28.0832 33.9922 28.0832ZM24.7891 29.7926C24.7891 30.7895 25.4789 31.5129 26.5422 31.5129C27.0242 31.5129 27.3641 31.4145 27.7148 31.1402L27.375 30.5598C27.1008 30.7676 26.8273 30.8668 26.5203 30.8668C25.9398 30.8668 25.5234 30.4504 25.5234 29.8043C25.5234 29.191 25.9398 28.7746 26.5203 28.7418C26.8273 28.7418 27.1008 28.8402 27.375 29.0488L27.7148 28.4684C27.375 28.1941 27.025 28.0957 26.5422 28.0957C25.4797 28.0832 24.7891 28.8066 24.7891 29.7926ZM31.4508 29.7926V28.1488H30.7273V28.5652C30.4859 28.2582 30.1469 28.0832 29.6977 28.0832C28.7664 28.0832 28.0539 28.8066 28.0539 29.8035C28.0539 30.8004 28.7773 31.5238 29.6977 31.5238C30.1797 31.5238 30.5195 31.3488 30.7273 31.0418V31.4582H31.4508V29.7926ZM28.8102 29.7926C28.8102 29.2121 29.1828 28.7301 29.807 28.7301C30.3875 28.7301 30.8039 29.1793 30.8039 29.7926C30.8039 30.373 30.3875 30.8551 29.807 30.8551C29.1828 30.8223 28.8102 30.384 28.8102 29.7926ZM20.1875 28.0832C19.2234 28.0832 18.5437 28.773 18.5437 29.8035C18.5437 30.8332 19.2336 31.5238 20.2312 31.5238C20.7133 31.5238 21.1953 31.3816 21.568 31.0746L21.2281 30.5598C20.9539 30.7676 20.6148 30.8996 20.2641 30.8996C19.8148 30.8996 19.3766 30.6918 19.2672 30.1105H21.6992V29.8363C21.7328 28.7621 21.1187 28.0832 20.1875 28.0832ZM20.1875 28.6965C20.6367 28.6965 20.9437 28.9707 21.0094 29.4855H19.2891C19.3664 29.0473 19.6727 28.6965 20.1875 28.6965ZM38.0789 29.7926V26.8457H37.3555V28.566C37.1141 28.259 36.775 28.084 36.3258 28.084C35.3945 28.084 34.682 28.8074 34.682 29.8043C34.682 30.8012 35.4055 31.5246 36.3258 31.5246C36.8078 31.5246 37.1477 31.3496 37.3555 31.0426V31.459H38.0789V29.7926ZM35.4273 29.7926C35.4273 29.2121 35.8 28.7301 36.4242 28.7301C37.0047 28.7301 37.4211 29.1793 37.4211 29.7926C37.4211 30.373 37.0047 30.8551 36.4242 30.8551C35.8109 30.8223 35.4273 30.384 35.4273 29.7926ZM11.3352 29.7926V28.1488H10.6117V28.5652C10.3703 28.2582 10.0312 28.0832 9.58203 28.0832C8.65078 28.0832 7.93828 28.8066 7.93828 29.8035C7.93828 30.8004 8.66172 31.5238 9.58203 31.5238C10.0641 31.5238 10.4039 31.3488 10.6117 31.0418V31.4582H11.3352V29.7926ZM8.6625 29.7926C8.6625 29.2121 9.03515 28.7301 9.65937 28.7301C10.2398 28.7301 10.6562 29.1793 10.6562 29.7926C10.6562 30.373 10.2398 30.8551 9.65937 30.8551C9.03437 30.8223 8.6625 30.384 8.6625 29.7926Z" fill="black"/>
<path d="M25.4133 3.125H14.6V22.55H25.4133V3.125Z" fill="#FF5F00"/>
<path d="M15.2797 12.843C15.2797 8.89922 17.1313 5.39297 19.9797 3.125C17.8867 1.48125 15.2469 0.484375 12.3547 0.484375C5.52891 0.484375 -0.00390625 6.00625 -0.00390625 12.843C-0.00390625 19.6688 5.51797 25.2016 12.3547 25.2016C15.2359 25.2016 17.8766 24.2047 19.9797 22.5609C17.1313 20.3258 15.2797 16.7875 15.2797 12.843Z" fill="#EB001B"/>
<path d="M39.9961 12.843C39.9961 19.6688 34.4742 25.2016 27.6375 25.2016C24.7562 25.2016 22.1156 24.2047 20.0125 22.5609C22.8937 20.293 24.7125 16.7984 24.7125 12.843C24.7125 8.89922 22.8609 5.39297 20.0125 3.125C22.1055 1.48125 24.7453 0.484375 27.6375 0.484375C34.4742 0.485156 39.9961 6.03984 39.9961 12.843Z" fill="#F79E1B"/>
</svg>
