<svg width="24" height="24" viewBox="0 0 24 24" fill="none" xmlns="http://www.w3.org/2000/svg">
<rect width="24" height="24" rx="6" fill="#F1F1F1"/>
<path d="M6.27557 18.9527V18.0257C6.27557 17.6703 6.05926 17.4385 5.68845 17.4385C5.50304 17.4385 5.30218 17.5004 5.16313 17.7012C5.05497 17.5313 4.90046 17.4385 4.6687 17.4385C4.5142 17.4385 4.35969 17.4849 4.23609 17.6549V17.4694H3.91162V18.9527H4.23609V18.1338C4.23609 17.8712 4.37514 17.7476 4.59145 17.7476C4.80776 17.7476 4.91591 17.8866 4.91591 18.1338V18.9527H5.24038V18.1338C5.24038 17.8712 5.39489 17.7476 5.59574 17.7476C5.81205 17.7476 5.92021 17.8866 5.92021 18.1338V18.9527H6.27557ZM11.0807 17.4694H10.5554V17.0214H10.2309V17.4694H9.93738V17.763H10.2309V18.4428C10.2309 18.7828 10.37 18.9836 10.7408 18.9836C10.8799 18.9836 11.0344 18.9373 11.1425 18.8755L11.0498 18.5973C10.9571 18.6592 10.849 18.6746 10.7717 18.6746C10.6172 18.6746 10.5554 18.5819 10.5554 18.4274V17.763H11.0807V17.4694ZM13.831 17.4385C13.6455 17.4385 13.5219 17.5313 13.4447 17.6549V17.4694H13.1202V18.9527H13.4447V18.1184C13.4447 17.8712 13.5528 17.7321 13.7537 17.7321C13.8155 17.7321 13.8928 17.7476 13.9546 17.763L14.0473 17.454C13.9855 17.4385 13.8928 17.4385 13.831 17.4385ZM9.67472 17.5931C9.52021 17.4849 9.30391 17.4385 9.07214 17.4385C8.70133 17.4385 8.45412 17.624 8.45412 17.9175C8.45412 18.1647 8.63953 18.3038 8.96399 18.3501L9.1185 18.3656C9.28845 18.3965 9.38116 18.4428 9.38116 18.5201C9.38116 18.6283 9.25755 18.7055 9.04124 18.7055C8.82493 18.7055 8.65498 18.6282 8.54682 18.551L8.39232 18.7982C8.56227 18.9218 8.79403 18.9836 9.02579 18.9836C9.45841 18.9836 9.70562 18.7828 9.70562 18.5046C9.70562 18.242 9.50476 18.1029 9.19575 18.0566L9.04124 18.0411C8.90219 18.0257 8.79403 17.9948 8.79403 17.9021C8.79403 17.7939 8.90219 17.7321 9.07214 17.7321C9.25755 17.7321 9.44296 17.8094 9.53567 17.8557L9.67472 17.5931ZM18.2962 17.4385C18.1108 17.4385 17.9872 17.5313 17.9099 17.6549V17.4694H17.5855V18.9527H17.9099V18.1184C17.9099 17.8712 18.0181 17.7321 18.2189 17.7321C18.2807 17.7321 18.358 17.7476 18.4198 17.763L18.5125 17.454C18.4507 17.4385 18.358 17.4385 18.2962 17.4385ZM14.1554 18.2111C14.1554 18.6592 14.4644 18.9836 14.9434 18.9836C15.1597 18.9836 15.3142 18.9373 15.4687 18.8137L15.3142 18.551C15.1906 18.6437 15.067 18.6901 14.9279 18.6901C14.6653 18.6901 14.4799 18.5046 14.4799 18.2111C14.4799 17.933 14.6653 17.7476 14.9279 17.7321C15.067 17.7321 15.1906 17.7785 15.3142 17.8712L15.4687 17.6085C15.3142 17.4849 15.1597 17.4385 14.9434 17.4385C14.4644 17.4385 14.1554 17.763 14.1554 18.2111ZM17.1528 18.2111V17.4694H16.8284V17.6549C16.7202 17.5158 16.5657 17.4385 16.3649 17.4385C15.9477 17.4385 15.6232 17.763 15.6232 18.2111C15.6232 18.6592 15.9477 18.9836 16.3649 18.9836C16.5812 18.9836 16.7357 18.9064 16.8284 18.7673V18.9527H17.1528V18.2111ZM15.9631 18.2111C15.9631 17.9484 16.1331 17.7321 16.4112 17.7321C16.6739 17.7321 16.8593 17.933 16.8593 18.2111C16.8593 18.4737 16.6739 18.6901 16.4112 18.6901C16.1331 18.6746 15.9631 18.4737 15.9631 18.2111ZM12.085 17.4385C11.6524 17.4385 11.3434 17.7476 11.3434 18.2111C11.3434 18.6746 11.6524 18.9836 12.1005 18.9836C12.3168 18.9836 12.5331 18.9218 12.7031 18.7828L12.5485 18.551C12.4249 18.6437 12.2704 18.7055 12.1159 18.7055C11.9151 18.7055 11.7142 18.6128 11.6679 18.3501H12.7649V18.2265C12.7803 17.7476 12.5022 17.4385 12.085 17.4385ZM12.085 17.7167C12.2859 17.7167 12.4249 17.8403 12.4558 18.072H11.6833C11.7142 17.8712 11.8533 17.7167 12.085 17.7167ZM20.1348 18.2111V16.8823H19.8104V17.6549C19.7022 17.5158 19.5477 17.4385 19.3468 17.4385C18.9297 17.4385 18.6052 17.763 18.6052 18.2111C18.6052 18.6592 18.9297 18.9836 19.3468 18.9836C19.5632 18.9836 19.7177 18.9064 19.8104 18.7673V18.9527H20.1348V18.2111ZM18.9451 18.2111C18.9451 17.9484 19.1151 17.7321 19.3932 17.7321C19.6559 17.7321 19.8413 17.933 19.8413 18.2111C19.8413 18.4737 19.6559 18.6901 19.3932 18.6901C19.1151 18.6746 18.9451 18.4737 18.9451 18.2111ZM8.09875 18.2111V17.4694H7.77429V17.6549C7.66613 17.5158 7.51163 17.4385 7.31077 17.4385C6.8936 17.4385 6.56914 17.763 6.56914 18.2111C6.56914 18.6592 6.8936 18.9836 7.31077 18.9836C7.52708 18.9836 7.68159 18.9064 7.77429 18.7673V18.9527H8.09875V18.2111ZM6.8936 18.2111C6.8936 17.9484 7.06356 17.7321 7.34167 17.7321C7.60433 17.7321 7.78974 17.933 7.78974 18.2111C7.78974 18.4737 7.60433 18.6901 7.34167 18.6901C7.06356 18.6746 6.8936 18.4737 6.8936 18.2111Z" fill="#242424"/>
<path d="M14.4335 6.20581H9.56656V14.9509H14.4335V6.20581Z" fill="#FF5F00"/>
<path d="M9.87555 10.5786C9.87555 8.80177 10.7099 7.2258 11.9923 6.20606C11.0498 5.46443 9.8601 5.01636 8.56224 5.01636C5.48756 5.01636 3 7.50392 3 10.5786C3 13.6533 5.48756 16.1408 8.56224 16.1408C9.8601 16.1408 11.0498 15.6928 11.9923 14.9511C10.7099 13.9468 9.87555 12.3554 9.87555 10.5786Z" fill="#EB001B"/>
<path d="M21 10.5784C21 13.653 18.5125 16.1406 15.4378 16.1406C14.1399 16.1406 12.9502 15.6925 12.0077 14.9509C13.3056 13.9312 14.1245 12.3552 14.1245 10.5784C14.1245 8.80153 13.2901 7.22556 12.0077 6.20581C12.9502 5.46418 14.1399 5.01611 15.4378 5.01611C18.5125 5.01611 21 7.51912 21 10.5784Z" fill="#F79E1B"/>
</svg>
