<svg width="40" height="40" viewBox="0 0 40 40" fill="none" xmlns="http://www.w3.org/2000/svg">
<rect width="40" height="40" rx="9.99998" fill="#F1F1F1"/>
<path d="M14.51 33.9836L15.0299 30.681L13.8718 30.6542H8.3414L12.1847 6.28498C12.1967 6.21142 12.2354 6.14282 12.2921 6.09411C12.3488 6.0454 12.4213 6.01855 12.4969 6.01855H21.8219C24.9176 6.01855 27.054 6.66275 28.1694 7.93425C28.6923 8.53073 29.0254 9.15406 29.1864 9.84001C29.3554 10.5598 29.3584 11.4197 29.1934 12.4685L29.1814 12.545V13.2171L29.7044 13.5133C30.1448 13.747 30.4947 14.0144 30.7631 14.3206C31.2105 14.8306 31.4998 15.4787 31.622 16.2472C31.7483 17.0375 31.7065 17.978 31.4998 19.0427C31.2612 20.2675 30.8755 21.3342 30.3545 22.207C29.8754 23.0113 29.265 23.6784 28.5402 24.1953C27.8483 24.6864 27.0262 25.0592 26.0966 25.2978C25.196 25.5324 24.169 25.6507 23.0427 25.6507H22.3169C21.798 25.6507 21.294 25.8376 20.8983 26.1726C20.5017 26.5146 20.2392 26.9819 20.1587 27.4929L20.104 27.7901L19.1854 33.6108L19.1437 33.8245C19.1327 33.8921 19.1138 33.9259 19.086 33.9488C19.0612 33.9696 19.0254 33.9836 18.9906 33.9836H14.51V33.9836Z" fill="#253B80"/>
<path d="M30.1997 12.6221V12.6221V12.6221C30.1718 12.8 30.14 12.9819 30.1042 13.1688C28.8745 19.4826 24.6673 21.6637 19.294 21.6637H16.5582C15.901 21.6637 15.3473 22.1409 15.2449 22.7891V22.7891V22.7891L13.8442 31.6727L13.4475 34.1908C13.3809 34.6163 13.709 35 14.1384 35H18.9908C19.5654 35 20.0535 34.5825 20.144 34.0158L20.1917 33.7693L21.1053 27.9715L21.164 27.6534C21.2534 27.0847 21.7426 26.6672 22.3172 26.6672H23.0429C27.7442 26.6672 31.4244 24.7585 32.5001 19.2351C32.9494 16.9277 32.7168 15.001 31.5278 13.646C31.168 13.2374 30.7216 12.8984 30.1997 12.6221V12.6221Z" fill="#179BD7"/>
<path d="M28.913 12.1094C28.7251 12.0547 28.5313 12.005 28.3324 11.9602C28.1326 11.9165 27.9278 11.8777 27.7171 11.8439C26.9794 11.7246 26.1712 11.668 25.3053 11.668H17.9964C17.8165 11.668 17.6455 11.7087 17.4924 11.7823C17.1554 11.9443 16.9048 12.2635 16.8442 12.6542L15.2894 22.502L15.2446 22.7894C15.347 22.1412 15.9008 21.664 16.5579 21.664H19.2938C24.6671 21.664 28.8742 19.4819 30.104 13.1691C30.1408 12.9822 30.1716 12.8003 30.1994 12.6223C29.8882 12.4573 29.5512 12.3161 29.1884 12.1959C29.0989 12.166 29.0065 12.1372 28.913 12.1094V12.1094Z" fill="#222D65"/>
<path d="M17.4926 11.783C17.6467 11.7094 17.8167 11.6687 17.9966 11.6687H25.3055C26.1714 11.6687 26.9796 11.7253 27.7173 11.8446C27.928 11.8784 28.1328 11.9172 28.3327 11.9609C28.5315 12.0057 28.7253 12.0554 28.9132 12.1101C29.0067 12.1379 29.0991 12.1667 29.1896 12.1955C29.5525 12.3158 29.8895 12.458 30.2006 12.622C30.5665 10.2888 30.1977 8.70017 28.9361 7.26166C27.5453 5.678 25.0351 5 21.8231 5H12.4981C11.842 5 11.2823 5.47718 11.1809 6.12635L7.29677 30.7461C7.22022 31.2332 7.596 31.6726 8.08711 31.6726H13.8441L15.2896 22.5017L16.8444 12.6538C16.9051 12.2631 17.1556 11.944 17.4926 11.783Z" fill="#253B80"/>
</svg>
