<svg width="56" height="56" viewBox="0 0 56 56" fill="none" xmlns="http://www.w3.org/2000/svg">
<rect width="56" height="56" rx="28" fill="url(#paint0_linear_20290_1372)"/>
<path fill-rule="evenodd" clip-rule="evenodd" d="M28.1748 31.2174H27.825C25.4217 31.2174 23.4736 29.2927 23.4736 26.9203V22.2971C23.4736 19.9237 25.4217 18 27.825 18H28.1748C30.5781 18 32.5272 19.9237 32.5272 22.2971V26.9203C32.5272 29.2927 30.5781 31.2174 28.1748 31.2174ZM34.5626 26.7829C34.5626 26.2539 34.9966 25.8263 35.5313 25.8263C36.066 25.8263 36.5 26.2539 36.5 26.7829C36.5 31.0866 33.2006 34.6404 28.9692 35.1178V37.0434C28.9692 37.5714 28.5352 38 28.0005 38C27.4648 38 27.0318 37.5714 27.0318 37.0434V35.1178C22.7994 34.6404 19.5 31.0866 19.5 26.7829C19.5 26.2539 19.934 25.8263 20.4687 25.8263C21.0034 25.8263 21.4374 26.2539 21.4374 26.7829C21.4374 30.3558 24.3814 33.2629 28.0005 33.2629C31.6186 33.2629 34.5626 30.3558 34.5626 26.7829Z" fill="white"/>
<defs>
<linearGradient id="paint0_linear_20290_1372" x1="-9.12696e-08" y1="-0.259259" x2="34.1193" y2="66.863" gradientUnits="userSpaceOnUse">
<stop stop-color="#247CFF"/>
<stop offset="1" stop-color="#247CFF"/>
</linearGradient>
</defs>
</svg>
