<svg width="56" height="56" viewBox="0 0 56 56" fill="none" xmlns="http://www.w3.org/2000/svg">
<rect width="56" height="56" rx="28" fill="url(#paint0_linear_186_14074)"/>
<path d="M32.14 18.96L23.11 21.96C17.04 23.99 17.04 27.3 23.11 29.32L25.79 30.21L26.68 32.89C28.7 38.96 32.02 38.96 34.04 32.89L37.05 23.87C38.39 19.82 36.19 17.61 32.14 18.96ZM32.46 24.34L28.66 28.16C28.51 28.31 28.32 28.38 28.13 28.38C27.94 28.38 27.75 28.31 27.6 28.16C27.31 27.87 27.31 27.39 27.6 27.1L31.4 23.28C31.69 22.99 32.17 22.99 32.46 23.28C32.75 23.57 32.75 24.05 32.46 24.34Z" fill="white"/>
<defs>
<linearGradient id="paint0_linear_186_14074" x1="-9.12696e-08" y1="-0.259259" x2="34.1193" y2="66.863" gradientUnits="userSpaceOnUse">
<stop stop-color="#247CFF"/>
<stop offset="1" stop-color="#247CFF"/>
</linearGradient>
</defs>
</svg>
