<svg width="40" height="40" viewBox="0 0 40 40" fill="none" xmlns="http://www.w3.org/2000/svg">
<rect x="0.5" y="0.5" width="39" height="39" rx="9.5" fill="white" stroke="#EDEDED"/>
<path d="M20.53 28.4201H14.21C11.05 28.4201 10 26.3201 10 24.2101V15.7901C10 12.6301 11.05 11.5801 14.21 11.5801H20.53C23.69 11.5801 24.74 12.6301 24.74 15.7901V24.2101C24.74 27.3701 23.68 28.4201 20.53 28.4201Z" stroke="#242424" stroke-width="1.5" stroke-linecap="round" stroke-linejoin="round"/>
<path d="M27.52 25.0999L24.74 23.1499V16.8399L27.52 14.8899C28.88 13.9399 30 14.5199 30 16.1899V23.8099C30 25.4799 28.88 26.0599 27.52 25.0999Z" stroke="#242424" stroke-width="1.5" stroke-linecap="round" stroke-linejoin="round"/>
<path d="M19.5 19C20.3284 19 21 18.3284 21 17.5C21 16.6716 20.3284 16 19.5 16C18.6716 16 18 16.6716 18 17.5C18 18.3284 18.6716 19 19.5 19Z" stroke="#242424" stroke-width="1.5" stroke-linecap="round" stroke-linejoin="round"/>
</svg>
